<svg width="263" height="372" viewBox="0 0 263 372" fill="none" xmlns="http://www.w3.org/2000/svg">
<path d="M130.487 50.8768C130.615 50.6763 130.772 50.5077 130.944 50.3595C131.026 50.2839 131.116 50.2142 131.203 50.1532C131.715 49.7899 132.251 49.6155 132.423 49.5632C132.498 50.8216 132.705 51.8213 133.162 51.9899C134.535 52.4898 134.786 51.3651 134.786 51.3651C134.786 51.3651 134.987 51.4988 135.313 51.5685L136.485 58.8952L143.336 59.3108C143.336 59.3108 148.767 51.7632 148.531 46.3983C148.415 43.7536 147.78 42.1871 147.169 41.2746C147.347 40.6933 147.405 40.2428 147.268 40.022C146.645 39.0251 142.402 40.5218 142.402 40.5218C142.402 40.5218 139.902 39.1501 138.281 40.5218C138.281 40.5218 134.786 40.1469 134.535 42.3906C134.535 42.3906 133.287 42.2656 132.664 43.5124C132.664 43.5124 132.289 46.9418 132.417 49.4469C132.28 49.2493 131.948 48.7988 131.453 48.3309C131.372 48.2525 131.288 48.1769 131.197 48.0955C131.014 47.9415 130.816 47.7875 130.604 47.6451C130.284 47.4329 129.928 47.2469 129.547 47.1132C129.288 47.0231 129.02 46.9592 128.741 46.9272C128.668 46.9214 128.593 46.9185 128.508 46.9214C127.915 46.9359 126.983 47.1888 125.895 47.584C125.426 47.7526 124.929 47.9473 124.416 48.1624C124.076 48.3077 123.729 48.4588 123.377 48.6158C122.676 48.9325 121.963 49.2726 121.276 49.6184C120.697 49.9119 120.138 50.2055 119.611 50.499C118.986 50.8478 118.412 51.1849 117.92 51.4988C117.667 51.6615 117.434 51.8184 117.231 51.9667C116.879 52.2195 116.605 52.4462 116.436 52.6351C116.34 52.7397 116.279 52.8356 116.256 52.9112C116.128 53.3413 116.355 54.623 116.948 56.1807C117.001 56.3202 117.059 56.4655 117.12 56.6108C117.239 56.9015 117.37 57.1979 117.516 57.5002C117.88 58.2558 118.319 59.0318 118.837 59.7787C119.044 60.078 119.262 60.3715 119.495 60.6563C120.775 62.2257 122.437 63.5364 124.495 64.0073L127.865 74.8505L138.977 72.7347L136.189 67.7912L134.483 64.7658L132.859 61.8886L134.067 52.9403C134.067 52.9403 133.764 53.1989 133.336 53.4692C132.885 53.7569 132.292 54.0563 131.744 54.1028C131.5 54.1202 131.267 54.0795 131.058 53.972C131.011 53.9487 130.962 53.9255 130.918 53.8935C130.767 53.7831 130.633 53.629 130.525 53.414C130.057 52.4782 130.071 51.7516 130.316 51.1907C130.362 51.0803 130.42 50.9756 130.487 50.8768ZM92.5395 49.9294C92.5395 49.9294 98.6396 60.139 96.1658 64.914C93.6949 69.689 88.2526 70.4272 88.2526 70.4272C88.2526 70.4272 88.2526 77.4254 89.571 78.6606C90.8923 79.8957 73.963 78.8814 73.963 78.8814L76.6812 63.4376C76.6812 63.4376 72.013 43.1782 92.5395 49.9294Z" fill="#F68A74"/>
<mask id="mask0_6_4" style="mask-type:luminance" maskUnits="userSpaceOnUse" x="0" y="0" width="264" height="372">
<path d="M0 0H263.015V372H0V0Z" fill="white"/>
</mask>
<g mask="url(#mask0_6_4)">
<path d="M58.0231 176.302C64.6004 179.664 110.054 183.568 110.336 183.937C116.756 192.339 124.588 163.177 122.132 133.339C123.037 133.255 123.945 133.144 124.856 133.005C154.567 128.517 144.538 74.3361 142.542 69.8489C140.545 65.3616 125.813 69.2269 124.317 71.2206C122.819 73.2143 119.323 82.6887 113.831 87.6758C111.812 89.5067 108.581 89.1812 105.301 88.042C100.741 83.4705 95.121 80.1864 88.2497 78.7652L83.2934 79.0006C83.2934 79.0006 58.7245 75.0016 54.4812 99.7542C50.2351 124.507 62.7611 153.38 62.5108 157.769C62.2605 162.154 51.2828 172.852 58.0231 176.302ZM81.9052 41.8617C81.9052 41.8617 81.1631 38.7346 77.9472 38.8973C74.7342 39.063 76.2184 43.2625 76.2184 43.2625C76.2184 43.2625 80.5868 42.8498 81.9052 41.8617ZM138.473 362.624C129.029 364.746 116.983 350.834 116.983 350.834C116.983 350.834 119.425 281.342 118.951 272.618C118.479 263.89 110.371 201.11 110.371 201.11L80.3802 198.514C80.3802 198.514 81.0554 201.299 82.1235 205.873L54.8596 205.611C54.8596 205.611 48.7333 264.672 48.3405 266.486C47.9476 268.296 31.3151 298.67 23.6609 316.252C16.0039 333.835 12.2146 340.261 12.2146 340.261C12.2146 340.261 1.65888 345.3 0 355.033C0 355.033 10.5383 362.857 14.1325 362.229C17.7268 361.604 22.6365 368.739 27.488 367.742C32.3424 366.746 43.1455 361.796 43.9662 359.585C44.7899 357.373 33.7335 359.989 30.0403 358.62C26.3471 357.248 21.0242 348.709 21.0242 348.709C21.0242 348.709 66.2564 285.562 68.8786 279.262C70.9275 274.341 80.1183 232.384 84.0472 214.226C89.213 236.938 97.8072 277.219 95.965 286.242C93.369 298.978 102.577 356.257 102.577 356.257C99.2711 358.849 103.995 370.407 103.995 370.407C103.995 370.407 134.067 372.215 139.262 371.98C144.457 371.741 152.643 359.088 151.936 357.672C151.226 356.257 147.92 360.5 138.473 362.624ZM117.58 57.6281C117.036 56.5179 116.657 55.4542 116.442 54.6056C102.746 58.869 93.5436 61.7085 93.5436 61.7085L94.5302 63.3272C94.5302 63.3272 103.843 61.0197 117.58 57.6281ZM263.009 19.5736C262.805 30.0885 259.324 37.0518 256.845 36.767C254.365 36.4822 240.535 28.5394 228.891 30.7191C221.615 32.0821 170.955 44.4773 133.98 53.5826L134.067 52.9403C134.067 52.9403 131.424 55.213 130.525 53.414C129.463 51.2954 130.883 50.2404 131.806 49.8045C132.012 49.7405 132.219 49.6766 132.425 49.6126C132.501 50.8478 132.711 51.8243 133.162 51.99C134.535 52.4898 134.786 51.3651 134.786 51.3651C134.786 51.3651 135.909 52.1149 137.158 50.9931C137.158 50.9931 139.154 51.6151 140.152 50.1183C140.152 50.1183 141.651 50.6182 143.15 48.6245C143.659 47.9416 144.375 46.8372 145.071 45.6427C182.867 33.7503 228.44 19.1464 233.39 16.3448C241.993 11.4768 243.751 0.552236 249.339 0.0203918C254.93 -0.508546 263.212 9.05592 263.009 19.5736Z" fill="#BEB4AA"/>
</g>
<path d="M81.6986 69.9825L88.6048 75.5828L88.3108 70.5114C84.2946 70.6887 81.6986 69.9825 81.6986 69.9825ZM103.255 83.7465C103.832 84.7869 104.321 86.1645 104.731 87.8356C106.279 88.4168 107.833 88.8324 109.268 88.9429C105.979 85.8768 103.581 83.979 103.27 83.732C103.479 83.5402 103.596 83.4355 103.596 83.4355C66.1458 58.5057 36.8418 109.127 39.8394 114.611C42.8342 120.098 70.066 141.967 70.066 141.967C69.126 115.901 99.696 87.0189 103.255 83.7465ZM124.856 133.005C118.264 134.001 111.78 133.609 105.683 132.4C103.392 171.582 96.7421 219.082 96.7421 219.082C112.97 227.309 141.68 219.332 141.68 219.332C137.635 211.703 135.816 155.816 132.763 130.174C130.505 131.563 127.891 132.548 124.856 133.005ZM51.7194 193.87L51.6088 193.876L45.3079 194.852C43.911 195.07 42.514 195.294 41.1171 195.521C41.7457 193.315 42.3569 191.272 42.9797 189.31L43.1077 188.918C43.5006 187.694 43.8964 186.477 44.3097 185.273L44.4377 184.913C44.6298 184.37 44.8219 183.826 45.0373 183.265C45.1362 182.98 45.2468 182.71 45.3603 182.44C45.5146 182.068 45.6717 181.681 45.8085 181.242L46.1548 180.135C46.2276 179.882 46.28 179.632 46.3324 179.385C46.3586 179.266 46.5361 178.467 46.5361 178.467C46.6554 177.926 46.7776 177.386 46.862 176.863C47.0774 175.692 47.3539 174.151 47.5896 172.591C47.9883 170.112 48.3085 167.595 48.617 165.156L48.7596 164.035C49.5483 157.67 50.1682 152.072 50.6513 146.928C51.2508 140.837 51.7339 135.231 52.121 129.782C52.1588 129.235 51.763 128.756 51.2188 128.692L51.1402 128.683H51.0936C50.5756 128.683 50.1362 129.072 50.0721 129.587L47.9971 146.635C47.7497 148.602 47.5081 150.573 47.2666 152.54C46.8213 156.191 46.3586 159.96 45.8638 163.663C45.468 166.671 45.0314 169.635 44.656 172.14C44.4348 173.675 44.1729 175.186 43.9663 176.345C43.8906 176.848 43.7829 177.336 43.6781 177.825C43.6781 177.825 43.5064 178.627 43.4802 178.758C43.4366 178.961 43.3958 179.165 43.3435 179.345L43.0728 180.249C40.8784 185.826 39.3098 191.728 38.0059 196.84C37.9623 197.023 37.9565 197.209 37.9914 197.395C38.1078 198.017 38.6491 198.468 39.2836 198.468C39.3621 198.468 39.4436 198.459 39.5222 198.447C41.2451 198.128 42.9651 197.791 44.6851 197.451L51.9318 196.012C52.5022 195.896 52.8777 195.358 52.7875 194.786C52.706 194.257 52.2578 193.87 51.7194 193.87ZM70.942 53.5535C79.9262 54.7886 89.7369 48.7785 89.7369 48.7785C89.7369 48.7785 96.4976 44.3319 96.0028 42.1929C95.5081 40.051 85.7818 38.6502 76.0526 42.1929C66.3234 45.7328 61.955 52.3183 70.942 53.5535ZM212.116 214.435L176.165 174.047L152.198 224.406L151.206 49.3481C171.846 44.2796 193.877 38.9031 209.342 35.2121C208.385 64.2572 205.786 162.172 212.116 214.435Z" fill="#614538"/>
<path d="M52.0511 194.899C52.022 194.716 51.8503 194.591 51.667 194.62L45.4243 195.588C43.6432 195.867 41.8621 196.152 40.0839 196.442C40.7707 193.981 41.4954 191.519 42.2695 189.084C42.709 187.726 43.1456 186.369 43.6083 185.023C43.8469 184.355 44.0798 183.684 44.333 183.024C44.5687 182.341 44.8714 181.751 45.0984 181.022L45.4389 179.926C45.5437 179.563 45.6019 179.214 45.6863 178.856C45.8405 178.147 46.0151 177.435 46.1286 176.726C46.3906 175.308 46.6408 173.89 46.8533 172.468C47.3131 169.635 47.6595 166.787 48.0203 163.944C48.7246 158.251 49.3736 152.561 49.9091 146.856C50.4708 141.154 50.9714 135.449 51.3789 129.732C51.3905 129.581 51.2799 129.447 51.1286 129.43C50.9743 129.41 50.8317 129.523 50.8113 129.677L48.7363 146.728C48.0233 152.407 47.3597 158.091 46.603 163.758C46.2276 166.595 45.8143 169.426 45.3923 172.245C45.1915 173.66 44.9529 175.061 44.7026 176.462C44.5949 177.168 44.4319 177.848 44.2893 178.54C44.2107 178.88 44.1525 179.237 44.0565 179.563L43.7684 180.519C41.6584 185.881 40.1508 191.449 38.7335 197.009L38.7306 197.018C38.7102 197.093 38.7073 197.175 38.7219 197.259C38.7801 197.567 39.0769 197.77 39.3883 197.715C41.4576 197.331 43.5239 196.922 45.5902 196.515L51.7834 195.283C51.9609 195.248 52.0802 195.079 52.0511 194.899ZM79.7167 112.129C74.0473 121.403 69.7052 131.894 70.066 141.967C70.066 141.967 62.9648 136.262 55.6163 129.95C58.2909 143.874 62.6593 155.159 62.5108 157.769C62.2605 162.154 51.2828 172.852 58.0231 176.302C59.9119 177.267 65.0166 178.278 71.332 179.237C70.8547 190.147 70.456 198.096 70.456 198.096L34.2545 202.83C34.2545 202.83 41.2102 173.221 42.4936 161.695C43.5908 151.86 45.7707 135.777 47.5751 122.833C45.0052 120.461 42.7905 118.293 41.347 116.634L42.1211 116.657C42.1211 116.657 59.4404 125.931 65.4241 122.629C69.2686 120.508 75.648 115.462 79.7167 112.129ZM184.721 101.876L180.117 93.3865L174.803 102.347L168.546 94.2119V111.309H192.634V93.9765L184.721 101.876ZM109.268 88.9429C111.049 89.0795 112.65 88.7482 113.831 87.6758C116.093 85.6239 118.014 82.8107 119.597 80.0701C115.493 82.0289 110.29 83.9616 105.502 85.5774C106.509 86.4377 107.801 87.574 109.268 88.9429ZM150.746 51.6848C147.99 47.9793 135.88 53.9255 133.581 56.544L132.859 61.8886L136.189 67.7912C139.192 67.6488 141.785 68.1487 142.542 69.8488C143.962 73.0428 149.445 101.393 141.788 119.101C143.694 118.505 145.545 117.866 147.323 117.174C148.898 116.564 150.307 115.82 151.578 114.974L151.223 52.452C151.034 52.1178 150.871 51.8533 150.746 51.6848ZM104.213 86.0076C104.396 86.5685 104.571 87.1788 104.731 87.8356C103.84 87.5014 102.956 87.1148 102.091 86.6993C102.781 86.4784 103.491 86.2488 104.213 86.0076Z" fill="#ED8820"/>
<path d="M256.478 33.8607L256.431 33.8665C256.126 33.9072 255.718 33.8723 255.372 33.7881C255.008 33.7154 254.656 33.5904 254.321 33.4335C253.635 33.1342 253.053 32.6256 252.491 32.1257C251.394 31.0649 250.564 29.7164 249.889 28.3098C248.527 25.4849 247.663 22.3897 247.017 19.2742C246.356 16.1646 245.972 12.9909 246.108 9.84347C246.202 8.277 246.414 6.71053 246.906 5.22834C247.162 4.49306 247.439 3.76069 247.834 3.09225C248.21 2.42672 248.687 1.7699 249.231 1.29619L249.263 1.27003C249.371 1.17703 249.394 1.01719 249.313 0.89803C249.225 0.767249 249.048 0.73528 248.92 0.822468C248.169 1.32815 247.631 1.96462 247.153 2.66503C246.667 3.35672 246.303 4.11525 245.966 4.8854C245.361 6.40828 245.058 8.01544 244.872 9.61969C244.415 10.2155 243.934 10.7909 243.434 11.3576C242.77 12.0958 242.084 12.8195 241.376 13.5344C239.988 14.9875 238.53 16.3912 237.171 17.9345L237.168 17.9374C237.089 18.0275 237.072 18.1553 237.13 18.2658C237.206 18.4053 237.38 18.4576 237.523 18.382C238.449 17.8792 239.293 17.2835 240.11 16.6441C240.931 16.0105 241.702 15.313 242.441 14.5748C243.169 13.8308 243.87 13.0491 244.473 12.1801C244.569 12.0435 244.659 11.904 244.752 11.7645C244.709 14.3976 245.043 17.019 245.558 19.5765C246.234 22.7763 247.133 25.9702 248.716 28.9143C248.83 29.1206 248.952 29.3212 249.071 29.5275C248.12 28.9869 247.127 28.5336 246.111 28.1325C245.346 27.8506 244.566 27.5919 243.76 27.4059C242.951 27.2257 242.121 27.0659 241.216 27.1734C241.088 27.1909 240.975 27.2781 240.934 27.4088C240.876 27.5861 240.972 27.7779 241.152 27.8361L241.193 27.8477C241.9 28.0802 242.631 28.3882 243.364 28.6702C244.097 28.9695 244.842 29.2485 245.59 29.5275C246.996 30.0303 248.416 30.5185 249.915 30.844C250.448 31.5967 251.047 32.3059 251.757 32.9278C252.438 33.4538 253.14 33.9682 253.975 34.2618C254.799 34.5553 255.66 34.7384 256.597 34.5204C256.766 34.4827 256.877 34.3228 256.856 34.1484C256.83 33.9653 256.661 33.8375 256.478 33.8607ZM203.487 79.0791L203.417 68.9769C203.391 65.6115 203.434 62.2432 203.437 58.8777C203.475 52.1439 203.635 45.4131 203.99 38.6967L203.993 38.6909C204.002 38.5049 203.859 38.3451 203.676 38.3363C203.49 38.3247 203.33 38.4642 203.318 38.6502C202.908 45.3869 202.692 52.1265 202.596 58.8661C202.567 62.2373 202.497 65.6086 202.494 68.9769L202.483 79.0849C202.518 92.5611 202.774 106.037 203.044 119.511C203.635 145.786 204.43 172.056 205.408 198.322L176.82 164.604C176.758 164.534 176.68 164.47 176.59 164.424C176.229 164.241 175.789 164.386 175.606 164.747L156.75 201.961L156.182 128.758L155.848 90.7883L155.446 52.8211C155.446 52.6671 155.318 52.5392 155.164 52.5421C155.007 52.5421 154.879 52.67 154.879 52.8269L154.951 90.7942L155.091 128.764L155.443 204.702C155.446 204.943 155.58 205.175 155.807 205.292C156.136 205.454 156.535 205.324 156.7 204.998L176.412 166.392L205.643 200.743C205.777 200.897 205.981 200.996 206.202 200.988C206.583 200.973 206.883 200.65 206.866 200.267C205.78 173.349 204.893 146.417 204.217 119.482C203.891 106.014 203.67 92.5466 203.487 79.0791ZM107.065 216.78C105.907 216.62 104.705 216.44 103.701 216.085C103.482 216.007 103.264 215.888 103.197 215.83L103.185 215.76C103.165 215.664 103.153 215.522 103.142 215.391C103.098 214.839 103.098 214.243 103.095 213.656C103.104 212.47 103.148 211.279 103.197 210.084C103.41 205.309 103.756 200.528 104.102 195.75C104.754 186.186 105.552 176.627 106.297 167.066L108.529 138.378C108.54 138.224 108.43 138.09 108.276 138.073C108.118 138.056 107.979 138.169 107.961 138.326L106.436 152.633L105.045 166.958C104.146 176.511 103.351 186.073 102.618 195.643C102.283 200.43 101.966 205.219 101.771 210.029C101.727 211.232 101.69 212.435 101.687 213.65C101.69 214.26 101.692 214.865 101.745 215.51C101.762 215.676 101.771 215.833 101.812 216.03L101.841 216.173C101.861 216.245 101.887 216.321 101.917 216.394C101.96 216.533 102.077 216.675 102.173 216.786C102.563 217.149 102.892 217.254 103.212 217.387C104.478 217.823 105.674 217.977 106.89 218.14C108.101 218.286 109.309 218.384 110.517 218.463C115.342 218.753 120.158 218.762 124.975 218.62C127.382 218.53 129.789 218.393 132.193 218.178C133.395 218.068 134.594 217.94 135.793 217.765C136.992 217.576 138.188 217.399 139.381 216.96C139.553 216.896 139.643 216.71 139.585 216.539C139.527 216.362 139.335 216.266 139.157 216.327L139.143 216.333C138.069 216.696 136.864 216.85 135.691 216.995C134.509 217.132 133.316 217.225 132.126 217.3C129.739 217.446 127.344 217.512 124.952 217.533C120.164 217.594 115.365 217.512 110.61 217.149C109.419 217.053 108.235 216.94 107.065 216.78ZM149.448 358.282C149.265 358.309 149.137 358.477 149.16 358.663C149.145 358.631 149.137 358.736 149.07 358.823C149.023 358.913 148.947 359.015 148.88 359.108C148.735 359.303 148.578 359.494 148.409 359.68C148.077 360.058 147.725 360.424 147.361 360.785C146.637 361.503 145.88 362.194 145.103 362.866C143.566 364.217 141.966 365.519 140.286 366.641C139.867 366.917 139.439 367.184 139.012 367.42C138.598 367.644 138.121 367.893 137.792 367.943C136.887 368.094 135.836 368.111 134.826 368.126C132.781 368.132 130.717 368.053 128.657 367.96C124.53 367.824 120.4 367.548 116.267 367.327L110.068 366.975L103.864 366.664C103.718 366.658 103.587 366.763 103.567 366.911C103.546 367.068 103.657 367.21 103.811 367.231C105.869 367.516 107.929 367.734 109.987 367.972L116.177 368.576C120.307 368.954 124.442 369.225 128.593 369.442C130.671 369.527 132.749 369.576 134.844 369.55C135.9 369.521 136.928 369.506 138.069 369.306C138.761 369.155 139.198 368.879 139.693 368.611C140.161 368.332 140.603 368.033 141.037 367.725C142.754 366.481 144.326 365.103 145.839 363.665C146.587 362.932 147.315 362.183 148.016 361.401C148.365 361.011 148.706 360.61 149.032 360.186C149.192 359.977 149.346 359.753 149.495 359.523C149.564 359.398 149.64 359.285 149.701 359.14C149.762 359.003 149.847 358.858 149.829 358.567C149.803 358.384 149.631 358.253 149.448 358.282ZM109.463 353.133C110.374 352.764 111.291 352.406 112.213 352.066L112.257 338.07L112.382 323.349L112.717 293.915C112.79 289.009 112.862 284.103 112.886 279.203C112.926 274.341 112.426 269.47 111.896 264.611C111.337 259.749 110.618 254.901 109.833 250.065C109.224 246.22 108.552 242.384 107.836 238.557C105.234 238.87 102.243 239.077 99.0062 239.19C99.7979 243.125 100.566 247.063 101.311 251.007C102.205 255.889 103.049 260.778 103.829 265.681C104.597 270.589 105.322 275.498 105.691 280.491L105.799 282.374L105.866 284.228L106.008 287.94L106.32 295.371L107.472 325.093L107.993 339.959L108.389 353.589C108.747 353.435 109.102 353.281 109.463 353.133ZM70.3367 238.548C65.8373 238.246 61.6377 237.877 58.0813 237.481C57.8194 245.892 57.3042 254.297 56.1838 262.67C55.8636 265.134 55.4213 267.593 54.8421 270.037L54.3299 271.862C54.1727 272.473 53.8817 273.071 53.6634 273.676C53.1716 274.864 52.5197 275.937 51.9376 277.027C49.5337 281.366 47.089 285.67 44.6327 289.965C39.6735 298.536 34.726 307.106 29.6998 315.636L22.1446 328.418L14.7117 340.798C14.8543 340.883 14.9969 340.964 15.1366 341.054C16.0621 341.633 16.9264 342.304 17.7413 343.033C18.1662 343.426 18.5708 343.838 18.9578 344.274L26.9583 331.394L35.2323 318.194L51.7746 291.799C54.5045 287.396 57.3217 282.996 59.8741 278.547L60.3397 277.713C60.4794 277.434 60.6016 277.154 60.7297 276.876C60.9712 276.294 61.1953 275.701 61.4049 275.097C61.8211 273.888 62.2081 272.661 62.5632 271.42C63.2791 268.941 63.931 266.436 64.5713 263.925C65.8344 258.9 66.9898 253.843 68.1044 248.778C68.8728 245.375 69.612 241.963 70.3367 238.548ZM110.022 354.507C107.624 355.455 105.205 356.347 102.685 356.992C102.531 357.033 102.376 356.94 102.336 356.786C102.304 356.658 102.362 356.527 102.47 356.466C104.166 355.492 105.918 354.658 107.696 353.882L106.902 340.005L106.151 325.148C105.674 315.244 105.252 305.336 104.839 295.426L104.574 287.995L104.451 284.275L104.396 282.412L104.303 280.581C103.974 275.681 103.255 270.767 102.592 265.867C101.899 260.964 101.125 256.07 100.328 251.178C99.696 247.185 99.0324 243.198 98.3514 239.213C89.9435 239.484 80.0164 239.176 71.1516 238.6C70.5113 242.07 69.8565 245.54 69.1725 249.005C68.1335 254.093 67.048 259.176 65.8519 264.239C65.2552 266.77 64.6266 269.296 63.9019 271.804C63.5469 273.063 63.1598 274.312 62.7378 275.559C62.5254 276.184 62.2925 276.806 62.0364 277.425C61.8996 277.733 61.7599 278.053 61.6115 278.352L61.1313 279.224C58.5324 283.789 55.7705 288.155 53.0377 292.584C47.4964 301.372 41.9348 310.143 36.2917 318.865L27.8023 331.932L19.3478 344.734C20.25 345.838 20.9951 347.067 21.4374 348.424C21.4869 348.579 21.4025 348.738 21.2512 348.788C21.1347 348.826 21.0096 348.785 20.9368 348.692L20.9281 348.68C20.2791 347.846 19.6476 347.044 18.9462 346.288C18.2361 345.547 17.5201 344.815 16.7431 344.135C15.2122 342.76 13.5592 341.49 11.8974 340.206L11.8857 340.197C11.7373 340.081 11.7082 339.868 11.8246 339.72C11.9148 339.601 12.0691 339.56 12.2059 339.607C12.9073 339.848 13.5679 340.159 14.2082 340.511L21.2774 327.918L28.6114 315.008L43.3434 289.227C45.8085 284.94 48.2764 280.651 50.6891 276.341C51.277 275.254 51.9201 274.202 52.3741 273.106C52.575 272.548 52.8398 272.031 52.994 271.441L53.4917 269.697C54.0534 267.328 54.5161 264.913 54.8799 262.481C55.6221 257.616 56.1139 252.698 56.5243 247.775C56.8299 244.32 57.0656 240.855 57.2722 237.388C51.472 236.72 47.5692 235.987 47.2171 235.389C45.7444 232.895 49.7578 212.953 52.8282 198.331C54.5161 190.287 57.6098 182.655 60.2407 177.098C68.0113 179.289 89.0093 181.568 101.212 182.873C98.9189 203.525 96.742 219.082 96.742 219.082C102.726 222.116 110.406 222.941 117.717 222.781C118.628 228.867 118.738 233.657 117.379 235.514C116.349 236.915 113.13 237.862 108.604 238.461C110.458 247.06 112.047 255.712 113.191 264.451C113.82 269.331 114.317 274.248 114.309 279.206C114.306 284.121 114.256 289.027 114.204 293.932C114.044 303.75 113.881 313.561 113.648 323.373L113.267 338.09L112.813 351.845C114.114 351.377 115.432 350.953 116.777 350.598C116.96 350.552 117.146 350.659 117.193 350.842C117.234 350.994 117.164 351.151 117.033 351.223C114.771 352.505 112.411 353.537 110.022 354.507ZM40.989 358.335C40.8784 358.407 40.8289 358.535 40.8464 358.66C40.8376 358.669 40.8347 358.672 40.8173 358.686C40.7678 358.739 40.6863 358.8 40.6048 358.855C40.436 358.968 40.2439 359.079 40.0518 359.178C39.6619 359.384 39.2544 359.573 38.8411 359.753C38.0146 360.113 37.1648 360.436 36.3092 360.741C34.6066 361.372 32.875 361.936 31.1317 362.409C30.2557 362.642 29.3826 362.86 28.5124 363.037C28.0788 363.121 27.6451 363.194 27.2261 363.232C27.0165 363.249 26.8128 363.261 26.6265 363.255C26.4403 363.241 26.2453 363.206 26.0532 363.185C25.2616 363.031 24.4438 362.688 23.6464 362.316C22.8431 361.941 22.0544 361.506 21.257 361.064C19.6418 360.212 18.0644 359.259 16.225 358.588L15.5033 358.373L14.7437 358.236C14.5516 358.192 14.3741 358.175 14.1703 358.117L13.5592 357.928C12.7385 357.626 11.9032 357.291 11.0796 356.917C9.42652 356.175 7.79965 355.344 6.18442 354.496C4.55464 353.67 2.95105 352.787 1.33583 351.926L1.33 351.924C1.20195 351.857 1.04188 351.895 0.960394 352.017C0.873084 352.147 0.908008 352.325 1.03897 352.412C4.09772 354.458 7.22923 356.37 10.5383 358.05C11.3619 358.474 12.2146 358.864 13.1081 359.198L13.8066 359.428C14.0423 359.5 14.3217 359.544 14.5778 359.596L15.1686 359.712L15.7594 359.901C17.363 360.512 18.9345 361.476 20.5381 362.366C21.3472 362.81 22.1708 363.243 23.0323 363.639C23.8937 364.025 24.7814 364.397 25.7971 364.586C26.0619 364.615 26.318 364.656 26.5887 364.67C26.8623 364.676 27.1155 364.659 27.3628 364.633C27.8576 364.58 28.3262 364.496 28.7918 364.4C29.7173 364.208 30.6166 363.955 31.5013 363.674C33.2737 363.113 35.0053 362.47 36.7108 361.753C37.5606 361.383 38.4017 360.994 39.2282 360.564C39.6415 360.349 40.0518 360.125 40.4564 359.869C40.6572 359.741 40.8551 359.605 41.053 359.442C41.1519 359.361 41.248 359.274 41.3498 359.154C41.3993 359.093 41.4517 359.024 41.4983 358.916C41.5448 358.808 41.5769 358.599 41.4575 358.428C41.3557 358.274 41.1461 358.23 40.989 358.335ZM134.669 51.0279C134.693 51.1006 134.762 51.1529 134.841 51.1442C134.934 51.1384 135.007 51.0599 134.998 50.964C134.925 49.5835 134.917 48.2031 134.893 46.8139L134.844 44.7272C134.821 44.0297 134.797 43.3322 134.739 42.6318C134.736 42.5678 134.687 42.5126 134.623 42.501C134.544 42.4865 134.469 42.5388 134.457 42.6172C134.332 43.3147 134.265 44.0122 134.215 44.7156C134.16 45.416 134.148 46.1193 134.148 46.8226C134.16 47.5259 134.183 48.2321 134.268 48.9354C134.349 49.6387 134.451 50.3421 134.669 51.0279ZM137.236 50.7344C137.329 50.7431 137.414 50.6763 137.423 50.5833C137.516 49.7521 137.58 48.9238 137.647 48.0926L137.85 45.6107C137.911 44.7824 138.005 43.9628 138.095 43.1433C138.194 42.3266 138.319 41.5129 138.563 40.7398L138.566 40.7311C138.587 40.6701 138.56 40.6003 138.502 40.5654C138.432 40.5277 138.345 40.5509 138.307 40.6177C137.868 41.3763 137.652 42.2133 137.475 43.0416C137.297 43.8698 137.187 44.7097 137.108 45.5467C137.038 46.3867 136.989 47.2237 136.989 48.0636C136.986 48.9035 137.001 49.7434 137.085 50.5833C137.094 50.6617 137.158 50.7286 137.236 50.7344ZM140.12 50.0602C140.199 50.0776 140.272 50.0253 140.289 49.9497C140.458 49.165 140.601 48.3774 140.749 47.5957L141.2 45.2532C141.354 44.4772 141.526 43.7042 141.709 42.9427C141.91 42.19 142.126 41.4228 142.516 40.7921L142.527 40.7718C142.568 40.7078 142.559 40.6207 142.504 40.5625C142.437 40.4986 142.329 40.5015 142.265 40.5654C141.648 41.1961 141.354 41.9895 141.078 42.7538C140.816 43.5269 140.63 44.3174 140.47 45.1108C140.324 45.9071 140.202 46.7034 140.129 47.5085C140.051 48.3106 139.995 49.1127 140.007 49.9236C140.007 49.9875 140.053 50.0485 140.12 50.0602ZM92.6123 127.799C88.1187 126.021 83.7329 123.972 79.4809 121.667C78.1974 120.97 76.9256 120.243 75.6626 119.502C75.4559 119.929 75.2522 120.357 75.0543 120.787C76.2999 121.504 77.5543 122.211 78.8232 122.891C83.1363 125.19 87.5803 127.259 92.1641 128.962C96.7449 130.677 101.448 132.083 106.253 133.025C111.058 133.955 115.962 134.394 120.848 134.234C121 134.225 121.125 134.097 121.125 133.946C121.122 133.789 120.991 133.661 120.834 133.664C115.994 133.682 111.168 133.109 106.454 132.054C101.733 131.028 97.1087 129.575 92.6123 127.799ZM108.34 89.1754C108.52 89.2044 108.692 89.0853 108.727 88.9051C108.759 88.722 108.639 88.5476 108.456 88.5127L108.444 88.5098C105.895 88.039 103.474 86.9637 101.163 85.7315C100.95 85.9407 100.726 86.1616 100.488 86.3941C100.511 86.4057 100.531 86.4173 100.555 86.429C103.005 87.6612 105.575 88.7423 108.34 89.1754ZM70.7441 60.0838C70.8401 58.1918 71.041 55.7448 71.4571 53.6116C80.2987 54.5532 89.7369 48.7785 89.7369 48.7785C89.7369 48.7785 90.1967 48.4762 90.8632 47.9938C92.88 49.3016 93.6192 50.8507 94.2711 52.3997L83.3895 53.8819C83.3895 53.8819 82.8423 57.5641 82.1875 60.8801C81.6898 63.4115 79.2131 65.0448 76.6841 64.4984L73.6428 63.8445C71.8849 63.4667 70.6539 61.8741 70.7441 60.0838Z" fill="#232A35"/>
</svg>
