<svg width="341" height="378" viewBox="0 0 341 378" fill="none" xmlns="http://www.w3.org/2000/svg">
<g clip-path="url(#clip0_77_2)">
<path d="M40.8044 3.80475C49.8205 5.30789 137.432 33.6077 137.432 33.6077L155.881 36.989L160.241 33.4955C161.319 32.6302 162.82 32.5239 164.011 33.2238L168.09 35.6276L167.384 45.1072C167.384 45.1072 164.773 69.875 150.398 98.6178C145.515 111.591 139.657 125.473 132.93 138.491C133.113 158.023 122.174 172.481 111.421 171.829C111.421 171.829 126.915 78.2442 116.02 66.981C105.128 55.7148 43.153 63.5996 33.295 38.5365C30.6303 31.7649 29.8918 24.4796 30.5653 18.3312C26.9258 10.8037 32.1104 4.56666 36.6716 4.7025C37.9153 3.89334 39.3067 3.55669 40.8044 3.80475ZM178.731 43.8934L178.841 34.9691L183.665 33.0259C184.539 32.6775 185.538 32.9314 186.131 33.6608L189.733 38.0669C189.733 38.0669 215.649 36.4722 225.98 42.1038C232.784 45.813 249.965 53.4793 259.108 58.9839C262.878 61.2548 267.327 62.0965 271.666 61.3612C284.115 59.2585 310.088 58.3224 313.869 64.4442C317.857 65.3567 320.894 72.5269 318.685 78.2294C320.534 92.0323 314.605 107.022 296.78 109.5C252.272 115.696 219.62 79.3427 219.968 83.0312L239.407 168.639C232.979 178.597 218.881 158.832 213.723 132.815C206.359 120.772 200.5 109.276 195.851 98.7832C175.691 69.8927 178.731 43.8934 178.731 43.8934ZM139.592 136.161C139.592 136.161 126.345 274.453 116.827 365.545L125.128 364.821C126.274 365.353 127.618 364.697 127.908 363.469L169.827 167.231L177.996 172.298L193.676 237.161L211.33 364.635C211.46 365.911 212.816 366.67 213.971 366.112L223.661 365.179C223.661 365.179 220.063 252.65 217.528 234.91C215.401 220.03 207.933 136.654 207.933 136.654L139.592 136.161Z" fill="#ABBBCF"/>
<path d="M219.968 83.0312C219.968 83.0312 216.237 62.4509 214.899 57.3095C214.899 57.3095 291.521 127.526 318.688 83.0696C319.881 92.7942 313.485 107.016 298.283 109.314C249.829 116.635 219.62 79.3427 219.968 83.0312ZM26.8815 1.69327C27.4015 1.74642 31.171 2.81841 36.9641 4.52827C33.5934 6.48914 31.233 11.8697 30.5447 18.5704C30.524 18.5615 30.5033 18.5527 30.4856 18.5438C36.2876 26.092 35.6318 46.9617 80.8097 45.1072C103.654 44.171 112.499 58.9544 116.682 67.8285C116.469 67.5125 116.254 67.2202 116.02 66.981C105.128 55.7148 44.5415 63.573 33.295 39.1005C30.1016 32.1548 30.4649 23.0001 30.4797 18.5408C26.7988 16.8103 24.4503 15.6468 24.0987 15.3397C23.7058 15.003 23.4636 14.3031 23.3424 13.3935C18.6187 8.69808 24.0958 3.94059 25.8298 2.17758C26.1637 1.83797 26.5182 1.65783 26.8815 1.69327ZM313.869 64.4442C313.731 64.2168 313.55 64.0042 313.349 63.7945C318.129 62.8082 321.225 62.1615 321.225 62.1615C321.225 62.1615 321.426 63.1626 321.494 63.4963C325.394 67.9082 323.592 73.9887 323.592 73.9887L324.011 76.0854C324.011 76.0854 322.005 76.93 318.682 78.2767C318.02 73.3006 316.36 68.4752 313.869 64.4442ZM140.891 124.003C153.653 124.853 207.292 128.651 207.292 128.651C213.387 134.743 234.722 171.51 228.293 217.434C228.482 221.657 228.533 225.812 228.42 229.84C227.889 249.133 220.772 258.494 213.416 263.001C205.833 267.643 195.939 263.299 194.199 254.581L176.383 178.677L172.371 177.339L153.999 253.734C152.067 262.791 141.459 266.837 133.952 261.412C95.4447 233.579 118.283 158.873 140.891 124.003ZM213.972 366.112L223.351 361.068C223.351 361.068 223.348 361.038 223.348 361C239.738 360.421 248.603 369 248.603 369L212.128 368.908L212.034 365.89C212.559 366.304 213.295 366.437 213.972 366.112ZM91.8199 368.87L126.726 369L127.406 364.378C126.839 364.972 125.94 365.196 125.128 364.821L117.43 361.068C117.459 360.793 117.489 360.519 117.515 360.244C101.385 359.896 91.8199 368.87 91.8199 368.87Z" fill="#516292"/>
<path d="M167.384 45.1072L167.86 38.7136C167.86 38.7136 168.235 38.7166 168.359 38.7195C171.946 35.6719 179.009 38.8347 179.009 38.8347L179.216 43.6542C179.216 43.6542 183.928 83.5716 213.546 132.413L213.395 140.664L190.858 152.509L173.771 138.036L154.427 152.306L131.896 140.041L133.087 138.184C154.776 96.0751 167.384 45.1072 167.384 45.1072ZM185.369 25.6402C185.369 25.6402 187.05 22.4006 184.359 20.419C184.359 20.419 184.498 7.0591 174.92 7.65563C174.011 7.39871 172.977 7.30125 171.801 7.40757C168.885 7.31602 163.795 8.5711 161.458 17.6874C161.458 17.6874 159.021 17.8941 159.125 21.683C159.125 21.683 154.773 26.3282 159.305 27.9465C163.833 29.5649 163.393 23.1891 163.393 23.1891C163.393 23.1891 165.222 20.8945 164.404 19.3205C164.404 19.3205 169.399 10.4463 173.352 15.2983C173.352 15.2983 173.449 18.3253 172.947 19.5124C172.634 20.2537 173.036 21.3522 173.464 22.0344C174.312 23.381 175.145 31.1861 175.145 31.1861C175.866 31.0237 179.954 31.2304 182.53 31.1093C182.728 31.1005 182.903 31.065 183.065 31.0178C183.106 31.0237 183.142 31.0385 183.189 31.0414C185.833 31.3249 187.529 27.474 185.369 25.6402Z" fill="#415072"/>
<path d="M150.354 98.733C165.065 101.63 180.244 101.586 195.913 98.4554C184.152 71.517 180.371 51.2024 179.461 45.3641L174.146 48.3763L167.346 45.2637C166.811 47.3899 160.805 70.9883 150.354 98.733Z" fill="#C0CDE3"/>
<mask id="mask0_77_2" style="mask-type:luminance" maskUnits="userSpaceOnUse" x="-1" y="-9" width="342" height="84">
<path d="M340.17 -9H-0.828546V74.16H340.17V-9Z" fill="white"/>
</mask>
<g mask="url(#mask0_77_2)">
<path d="M179.225 43.7194C179.228 43.743 179.23 43.7696 179.233 43.8021C179.23 43.7725 179.228 43.74 179.225 43.7194ZM179.222 43.6869C179.219 43.6662 179.216 43.6544 179.216 43.6544C179.216 43.6544 179.219 43.6721 179.222 43.6869ZM179.225 43.7194C179.222 43.7046 179.222 43.6957 179.222 43.6869C179.222 43.6957 179.225 43.7105 179.225 43.7194ZM168.415 11.5274C168.365 11.799 168.389 12.0294 168.531 12.1889C170.802 14.7256 172.684 12.1239 174.643 13.9312C175.96 15.1508 174.536 17.8411 173.957 19.2025C173.644 19.9438 173.712 20.7854 174.14 21.4646C174.988 22.8142 175.148 24.8312 175.774 25.2741C175.774 25.2741 172.746 30.386 179.756 31.0623L179.827 34.5735L178.841 34.9693L179.009 38.8349L168.279 38.7197L169.086 32.0988C165.866 32.0988 163.414 30.1261 163.003 28.1889C162.421 25.4395 164.631 14.3683 164.631 14.3683C165.703 12.7647 167.015 11.9054 168.415 11.5274ZM322.348 62.5633C323.358 60.9715 323.19 56.6068 327.092 55.9837C330.992 55.3606 335.16 56.4739 335.559 57.4425C335.958 58.4082 336.126 58.9811 336.126 58.9811C336.126 58.9811 339.517 59.179 339.825 60.9656C340.132 62.7552 339.186 62.9708 339.186 62.9708C339.186 62.9708 340.808 64.1225 339.887 65.7704C338.962 67.4211 338.017 66.8069 338.017 66.8069C338.017 66.8069 338.661 69.2787 336.557 69.9195C336.557 69.9195 335.848 71.7327 334.469 72.0841C333.089 72.4385 325.506 72.9701 324.56 73.602C324.395 73.7113 324.049 73.8737 323.606 74.0657L321.459 63.3281C321.878 63.0712 322.191 62.8113 322.348 62.5633ZM12.2849 -2.00092C8.71332 -4.31026 6.63654 0.320242 11.6645 1.75251C7.42531 0.59193 6.7104 5.33465 11.6468 5.59748C7.46371 9.57533 17.4842 12.1889 23.363 13.5325C22.8431 10.1039 24.1813 3.4033 26.0661 1.96808C25.6348 1.15598 25.1916 0.199164 24.6569 -0.97618C23.0676 -4.46382 18.9465 -5.36452 14.2051 -6.8529C12.3765 -7.4258 -0.790216 -10.6211 -0.831575 -7.94555C-0.899521 -3.62218 12.4031 -5.99649 12.2849 -2.00092Z" fill="#F9AD95"/>
</g>
<path d="M16.8255 -0.0904221C16.8078 -0.10814 16.7812 -0.117 16.7546 -0.119953C17.0648 -0.341438 17.4223 -0.480235 17.7975 -0.486141C17.6172 -0.111095 17.5286 0.299391 17.5079 0.703969C17.502 0.825047 17.5168 0.943172 17.5198 1.06425C17.4902 0.978609 17.4607 0.892969 17.4252 0.807328C17.2864 0.473625 17.0825 0.169453 16.8255 -0.0904221ZM11.7207 5.43192C11.7089 5.5028 11.7532 5.57662 11.8271 5.5973C12.5036 5.77744 13.1949 5.8867 13.895 5.93691C14.5922 5.9812 15.3041 5.96939 16.0072 5.82764C16.2288 5.78334 16.4444 5.71247 16.6601 5.62387C16.6424 5.67703 16.6601 5.73609 16.7103 5.76267L16.7133 5.76562C17.0294 5.93691 17.3455 6.11114 17.6261 6.32377C17.9038 6.52162 18.1874 6.77559 18.2524 7.02661C18.2997 7.25105 18.0338 7.47844 17.7295 7.62019C17.4223 7.76784 17.0796 7.86825 16.7369 7.95389C16.0456 8.12812 15.3307 8.23739 14.6158 8.32303C13.9009 8.40572 13.1742 8.47659 12.4622 8.50022H12.4563C12.3795 8.50317 12.3175 8.56814 12.3175 8.64787C12.3204 8.7217 12.3795 8.78076 12.4534 8.78372C12.9083 8.80734 13.3544 8.79553 13.8005 8.77191C13.7739 8.80144 13.7532 8.83392 13.7503 8.86936C13.7414 9.16762 13.8448 9.4275 14.0339 9.6608C14.0752 9.71395 14.155 9.72281 14.2081 9.68147C14.2377 9.65784 14.2525 9.62241 14.2554 9.58992C14.2702 9.29166 14.2052 9.01997 14.022 8.78372C14.0132 8.76895 13.9954 8.76895 13.9836 8.76009C14.2081 8.74533 14.4327 8.73647 14.6572 8.7158C15.3898 8.64197 16.1195 8.53566 16.8403 8.35552C17.2007 8.25806 17.5582 8.14584 17.9038 7.96866C18.0781 7.87711 18.2524 7.77966 18.4001 7.61428C18.5537 7.46662 18.6689 7.19789 18.6069 6.94983C18.4533 6.49505 18.1106 6.27356 17.8034 6.06389C17.4843 5.86012 17.1505 5.70656 16.8167 5.55595C16.8876 5.52052 16.9644 5.49394 17.0382 5.45259C17.1978 5.35809 17.3484 5.22816 17.4843 5.09822C17.5877 4.92989 17.7413 4.78519 17.7709 4.58437C17.9954 3.81361 17.6438 3.11667 17.313 2.52309C17.4754 2.34886 17.5877 2.13033 17.6084 1.9118C17.6084 1.90884 17.6084 1.90589 17.6084 1.90589C17.6261 1.99744 17.635 2.08898 17.6557 2.17758C17.8831 3.13734 18.2731 4.03214 18.731 4.88855C18.7694 4.95647 18.855 4.98305 18.923 4.94761C18.9939 4.90922 19.0175 4.82358 18.985 4.75566C18.5567 3.90811 18.1933 3.02217 17.9983 2.10375C17.8063 1.20009 17.7709 0.20489 18.2524 -0.554063C18.3085 -0.639703 18.2819 -0.754875 18.1963 -0.810985C18.1726 -0.82575 18.146 -0.83461 18.1224 -0.837563C17.6645 -0.908438 17.18 -0.813938 16.7783 -0.5895C16.3735 -0.368016 16.0486 -0.0343124 15.7975 0.325969C15.2923 1.0613 15.0205 1.90589 14.8433 2.74753L14.734 3.37655C14.6985 3.55669 14.6365 3.72797 14.5272 3.85495C14.3174 4.11187 13.9334 4.16208 13.5966 4.02919C13.2599 3.89925 12.9792 3.6128 12.8167 3.27023C12.6395 2.92472 12.6277 2.54377 12.6011 2.1067C12.545 1.25916 12.4445 0.414562 12.4002 -0.41822C12.3411 -1.25395 12.4475 -2.06311 12.8935 -2.75709C13.313 -3.45108 14.0102 -3.92653 14.7724 -4.23956C15.5375 -4.56145 16.3588 -4.76227 17.18 -4.95127C17.2421 -4.96603 17.2834 -5.02805 17.2687 -5.09006C17.2568 -5.15208 17.1948 -5.19047 17.1328 -5.17866C16.3026 -5.01033 15.4666 -4.83019 14.6601 -4.51716C13.8596 -4.21594 13.0797 -3.69619 12.6099 -2.93428C12.4741 -2.70984 12.3618 -2.47064 12.2702 -2.22553C12.2466 -2.16647 12.2318 -2.1015 12.2141 -2.03948C12.1786 -1.93022 12.1343 -1.82391 12.1136 -1.70578C12.028 -1.26872 12.025 -0.831656 12.0398 -0.403453C12.0752 0.452953 12.1668 1.29164 12.217 2.13033C12.2377 2.53195 12.2466 3.01922 12.4563 3.44152C12.6513 3.86086 12.994 4.23295 13.4489 4.41309C13.8832 4.60209 14.5065 4.54008 14.8403 4.11778C15.0087 3.91992 15.0914 3.67776 15.1328 3.44447L15.2391 2.82727C15.4046 2.01811 15.6616 1.21781 16.1165 0.550405C16.2583 0.331874 16.4356 0.139922 16.6306 -0.0225002C16.6276 0.00703064 16.6335 0.0395154 16.6512 0.0631404C16.8403 0.331875 16.9821 0.63014 17.0855 0.937265C17.18 1.24144 17.2509 1.56628 17.2007 1.85273C17.1564 2.13919 16.9998 2.34886 16.728 2.43745C16.4533 2.529 16.1224 2.50537 15.7945 2.4788L15.7827 2.47584C15.703 2.46994 15.6321 2.529 15.6261 2.60873C15.6202 2.67961 15.6675 2.74162 15.7354 2.75639C16.0811 2.84203 16.4474 2.91881 16.8433 2.81545C16.9437 2.79183 17.0412 2.74753 17.1298 2.69142C17.3957 3.27319 17.6232 3.91697 17.4282 4.4633C17.2362 5.03916 16.5538 5.29903 15.9245 5.42306C15.2776 5.55595 14.5922 5.57367 13.9186 5.54414C13.2392 5.51166 12.5597 5.44078 11.8921 5.3197C11.8123 5.30494 11.7385 5.35219 11.7207 5.43192ZM330.162 61.8484C330.268 61.0836 330.318 60.3128 330.309 59.5391C330.785 59.3176 331.346 59.1463 331.801 59.2644C332.292 59.3826 332.377 59.9968 332.327 60.5609C332.277 61.2312 332.365 61.9311 332.605 62.5749C332.191 62.5276 331.778 62.4833 331.385 62.3947C331.157 62.3504 330.933 62.2855 330.729 62.1998C330.522 62.1172 330.327 62.0167 330.185 61.8661L330.176 61.8573C330.173 61.8514 330.165 61.8514 330.162 61.8484ZM327.866 66.0862C327.813 66.1216 327.798 66.1954 327.837 66.2486C327.872 66.3017 327.943 66.3135 327.996 66.2781C328.528 65.9208 328.947 65.4187 329.249 64.8665C329.32 64.7395 329.37 64.6037 329.429 64.4737C329.47 64.5505 329.521 64.6244 329.574 64.6923C329.169 64.9787 328.924 65.3981 328.758 65.8263C328.587 66.2811 328.51 66.7713 328.546 67.2704C328.572 67.6661 328.738 68.1179 329.069 68.4162C328.679 68.8562 328.3 69.3553 328.244 70.0256C328.215 70.3948 328.371 70.7875 328.625 71.0415C328.877 71.3014 329.178 71.4786 329.485 71.6114C330.108 71.8625 330.749 71.9924 331.393 72.0633C332.037 72.1342 332.679 72.1519 333.325 72.1194C333.39 72.1164 333.441 72.0603 333.438 71.9954C333.435 71.9363 333.382 71.889 333.323 71.8861C332.693 71.8595 332.061 71.7945 331.441 71.703C330.823 71.6026 330.206 71.4756 329.651 71.2334C329.101 71.0002 328.599 70.5956 328.637 70.0404C328.658 69.5413 328.968 69.0481 329.305 68.5993C329.754 68.8385 330.191 68.9536 330.64 69.0718C332.457 69.5147 334.289 69.7864 336.132 69.9902C336.197 69.9961 336.253 69.9488 336.262 69.8868C336.268 69.8248 336.224 69.7687 336.164 69.7569L333.438 69.2637C332.534 69.0836 331.627 68.9123 330.744 68.6731C330.309 68.5579 329.851 68.4309 329.494 68.239C329.148 68.0559 328.983 67.6484 328.942 67.229C328.897 66.8067 328.95 66.3578 329.095 65.9444C329.225 65.5398 329.441 65.1441 329.763 64.9049C329.84 64.9758 329.916 65.0437 329.996 65.1028C330.3 65.3272 330.628 65.4926 330.962 65.6432C331.633 65.9296 332.327 66.1275 333.024 66.2958C334.424 66.6089 335.842 66.8097 337.272 66.8894C337.334 66.8924 337.39 66.8422 337.393 66.7772C337.396 66.7152 337.349 66.665 337.293 66.6532C335.893 66.4494 334.489 66.2279 333.122 65.8942C332.436 65.7288 331.757 65.5398 331.116 65.2799C330.794 65.15 330.481 65.0024 330.206 64.8134C329.928 64.6303 329.689 64.397 329.597 64.1135C329.724 63.7857 329.837 63.452 329.922 63.1124C329.996 62.8141 330.058 62.5129 330.111 62.2117C330.43 62.5631 330.891 62.7078 331.302 62.7964C331.772 62.8791 332.238 62.8938 332.705 62.8377C332.903 63.2748 333.178 63.6764 333.538 64.0101C334.005 64.4383 334.554 64.7809 335.231 64.8724C335.317 64.8783 335.408 64.8842 335.529 64.8488C335.582 64.8399 335.683 64.775 335.718 64.707C335.751 64.6509 335.769 64.6066 335.78 64.5653C335.837 64.3999 335.863 64.2493 335.89 64.0987C335.943 63.7945 335.981 63.4963 336.017 63.195C336.031 63.071 336.037 62.944 336.052 62.82C336.805 62.9883 337.571 63.0533 338.348 63.0415C338.413 63.0385 338.463 62.9854 338.463 62.9204C338.46 62.8643 338.424 62.82 338.374 62.8082C337.618 62.6221 336.856 62.5158 336.079 62.5129C336.173 61.5413 336.238 60.5668 336.291 59.5922C336.297 59.5154 336.238 59.4475 336.159 59.4416C336.082 59.4387 336.014 59.4977 336.008 59.5775C335.91 60.7705 335.792 61.9665 335.653 63.1507C335.618 63.4461 335.577 63.7443 335.523 64.0308C335.497 64.1725 335.467 64.3202 335.426 64.4413C335.42 64.4649 335.411 64.4797 335.405 64.4915C335.379 64.4974 335.322 64.5003 335.263 64.4944C334.741 64.4235 334.212 64.1105 333.807 63.7266C332.968 62.9411 332.649 61.7392 332.741 60.5874C332.761 60.2833 332.767 59.9496 332.658 59.6188C332.566 59.2881 332.265 58.9632 331.91 58.8805C331.204 58.7299 330.599 58.9809 330.035 59.2497C329.97 59.2822 329.934 59.3471 329.934 59.4121L329.937 59.4239C329.975 60.6288 329.881 61.8602 329.603 63.0356C329.314 64.1902 328.844 65.3833 327.866 66.0862ZM131.896 139.675L133.234 141.255C127.849 157.485 115.778 175.065 114.029 199.981C107.427 188.842 108.871 184.955 111.722 171.994C119.459 162.73 125.601 151.895 131.896 139.675ZM213.546 132.413C220.589 144.025 229.038 156.142 239.168 168.347C242.243 181.996 243.162 201.711 228.276 217.13C226.973 188.886 219.555 157.71 213.292 140.72L213.395 140.664L213.546 132.413ZM135.707 132.963C135.683 133.01 135.66 133.054 135.639 133.101C135.663 133.051 135.686 133.001 135.71 132.951C135.71 132.954 135.707 132.96 135.707 132.963ZM139.332 125.308H139.323C139.592 124.723 139.866 124.136 140.132 123.548C139.866 124.136 139.6 124.723 139.332 125.308ZM170.897 174.537L157.674 236.517C167.612 238.817 178.672 238.953 190.391 236.225C190.436 236.213 190.48 236.201 190.527 236.189L178.335 175.124L175.686 174.929L170.897 174.537Z" fill="#F36F6F"/>
<path d="M211.15 115.079C211.679 114.777 212.208 114.476 212.79 114.258C212.87 114.231 212.964 114.249 213.026 114.314C213.106 114.402 213.1 114.541 213.011 114.621C212.556 115.04 212.048 115.377 211.543 115.716C211.023 116.035 210.503 116.354 209.927 116.576C209.827 116.614 209.712 116.591 209.635 116.508C209.537 116.399 209.546 116.233 209.655 116.133C210.113 115.719 210.633 115.4 211.15 115.079ZM202.885 97.2771C202.365 97.596 201.845 97.9149 201.269 98.1394C201.168 98.1748 201.053 98.1512 200.976 98.0685C200.879 97.9592 200.887 97.7939 200.994 97.6964C201.455 97.28 201.972 96.9611 202.489 96.6392C203.02 96.3409 203.549 96.0368 204.131 95.8182C204.211 95.7887 204.305 95.8094 204.367 95.8743C204.447 95.9629 204.441 96.1017 204.353 96.1815C203.898 96.6008 203.39 96.9404 202.885 97.2771ZM197.059 82.9426C196.495 83.2852 195.93 83.6336 195.307 83.8817C195.207 83.923 195.088 83.8994 195.012 83.8108C194.917 83.7016 194.926 83.5362 195.035 83.4387C195.54 82.9958 196.105 82.6502 196.666 82.3018C197.242 81.9769 197.818 81.6491 198.444 81.404C198.524 81.3715 198.622 81.3922 198.684 81.4601C198.763 81.5487 198.755 81.6875 198.666 81.7643C198.164 82.2132 197.611 82.5764 197.059 82.9426ZM190.04 69.7539C189.954 69.6358 189.981 69.4704 190.096 69.3848C190.681 68.9566 191.316 68.6288 191.951 68.2981C192.598 67.9939 193.242 67.6838 193.933 67.4594C194.016 67.4328 194.114 67.4623 194.17 67.5362C194.244 67.6336 194.223 67.7694 194.128 67.8374C193.546 68.2715 192.92 68.6199 192.294 68.9655C191.659 69.2903 191.024 69.6181 190.335 69.8484C190.229 69.8809 190.111 69.8484 190.04 69.7539ZM186.669 54.693C186.055 54.9706 185.437 55.2512 184.776 55.4254C184.669 55.4549 184.554 55.4136 184.489 55.3191C184.406 55.198 184.439 55.0326 184.56 54.9529C185.13 54.569 185.744 54.2914 186.359 54.0108C186.985 53.751 187.609 53.4911 188.273 53.3198C188.359 53.2991 188.453 53.3316 188.507 53.4084C188.575 53.5059 188.548 53.6417 188.45 53.7067C187.883 54.0965 187.275 54.3947 186.669 54.693ZM137.55 116.452C138.141 116.632 138.682 116.915 139.222 117.196C139.754 117.497 140.283 117.798 140.767 118.182C140.835 118.235 140.868 118.327 140.841 118.416C140.809 118.528 140.688 118.596 140.572 118.56C139.976 118.383 139.426 118.12 138.877 117.86C138.336 117.577 137.798 117.293 137.311 116.912C137.228 116.847 137.187 116.735 137.219 116.629C137.264 116.487 137.411 116.41 137.55 116.452ZM147.896 99.5539C147.302 99.3767 146.75 99.1139 146.2 98.8511C145.662 98.5676 145.122 98.287 144.634 97.9031C144.552 97.8382 144.51 97.7259 144.543 97.6196C144.587 97.4808 144.735 97.4011 144.877 97.4454C145.467 97.6255 146.008 97.9061 146.549 98.1866C147.077 98.4879 147.609 98.7891 148.094 99.1759C148.159 99.2291 148.191 99.3177 148.165 99.4063C148.132 99.5214 148.011 99.5864 147.896 99.5539ZM149.193 82.8304C149.234 82.6916 149.385 82.6148 149.523 82.6591C150.162 82.8629 150.749 83.17 151.337 83.4712C151.913 83.799 152.489 84.1209 153.021 84.5314C153.092 84.5845 153.125 84.679 153.098 84.7676C153.063 84.8799 152.941 84.9448 152.826 84.9094C152.185 84.7086 151.588 84.4221 150.992 84.1386C150.404 83.8315 149.819 83.5244 149.284 83.1198C149.196 83.0548 149.157 82.9397 149.193 82.8304ZM152.705 68.6199C152.741 68.4782 152.885 68.3955 153.027 68.4309C153.727 68.6081 154.386 68.8887 155.045 69.1692C155.692 69.4734 156.342 69.7717 156.953 70.1644C157.027 70.2117 157.068 70.3032 157.045 70.3948C157.015 70.5129 156.9 70.5808 156.785 70.5542C156.079 70.383 155.414 70.1201 154.746 69.8573C154.091 69.5738 153.435 69.2933 152.823 68.9064C152.729 68.8473 152.679 68.7351 152.705 68.6199ZM157.662 53.9222C158.336 54.0522 158.971 54.2855 159.603 54.5188C160.229 54.7757 160.856 55.0297 161.449 55.3752C161.523 55.4195 161.571 55.5081 161.553 55.5996C161.529 55.7177 161.42 55.7975 161.302 55.7739C160.625 55.6498 159.984 55.4342 159.343 55.2216C158.711 54.9854 158.076 54.7521 157.482 54.4095C157.387 54.3564 157.331 54.2441 157.355 54.1319C157.382 53.9902 157.52 53.8957 157.662 53.9222ZM159.901 173.025C162.545 173.184 165.186 173.367 167.825 173.562L175.745 174.185L183.656 174.879C186.294 175.101 188.932 175.352 191.567 175.621C191.679 175.632 191.762 175.73 191.756 175.845C191.75 175.963 191.647 176.052 191.532 176.046C188.888 175.886 186.247 175.715 183.606 175.511L178.335 175.124L175.686 174.929L170.897 174.537L167.768 174.28C165.13 174.049 162.495 173.804 159.857 173.542C159.721 173.527 159.618 173.409 159.627 173.267C159.633 173.125 159.757 173.016 159.901 173.025ZM140.566 263.647C141.346 263.116 142.038 262.351 142.628 261.562C143.219 260.762 143.757 259.917 144.203 259.023C145.128 257.251 145.825 255.361 146.383 253.435C147.491 249.573 147.99 245.553 148.365 241.537C148.747 237.518 148.983 233.484 149.095 229.444C149.193 225.404 149.222 221.359 149.142 217.319C149.139 217.18 149.252 217.059 149.391 217.053C149.535 217.047 149.656 217.156 149.662 217.301C149.754 219.327 149.804 221.353 149.831 223.381C149.84 225.407 149.825 227.433 149.783 229.462C149.689 233.514 149.5 237.568 149.107 241.608C148.693 245.639 148.156 249.691 146.992 253.613C146.401 255.565 145.68 257.487 144.705 259.291C144.224 260.198 143.651 261.054 143.024 261.867C142.436 262.602 141.804 263.284 141.01 263.845C140.93 263.901 140.856 263.963 140.773 264.019C140.679 264.081 140.549 264.055 140.484 263.96C140.454 263.916 140.448 263.863 140.454 263.816C140.46 263.757 140.487 263.7 140.54 263.665L140.566 263.647ZM129.642 258.955C129.048 257.968 128.516 256.947 128.032 255.901C127.985 255.795 127.937 255.683 127.89 255.573C127.524 254.761 127.184 253.94 126.886 253.105C126.15 251.073 125.663 248.964 125.261 246.85C124.862 244.733 124.632 242.589 124.487 240.442C124.342 238.298 124.304 236.145 124.372 233.998C124.493 229.698 124.969 225.425 125.651 221.187C126.342 216.952 127.261 212.762 128.496 208.642C128.528 208.533 128.646 208.468 128.756 208.501C128.871 208.53 128.936 208.648 128.903 208.763V208.766C128.33 210.816 127.855 212.904 127.426 214.992C126.986 217.079 126.599 219.179 126.277 221.288C125.636 225.505 125.202 229.757 125.119 234.016C125.007 238.268 125.196 242.544 125.937 246.729C126.579 250.373 127.654 253.955 129.317 257.254C129.562 257.738 129.819 258.216 130.088 258.689L130.091 258.695C130.162 258.816 130.121 258.972 129.999 259.043C129.875 259.117 129.716 259.079 129.642 258.955ZM193.319 221.881C193.437 221.869 193.54 221.952 193.555 222.07C193.992 225.838 194.515 229.604 195.071 233.357C195.644 237.108 196.291 240.849 197.065 244.561C197.83 248.273 198.675 251.977 199.842 255.57C200.433 257.363 201.094 259.135 201.963 260.795C202.391 261.624 202.879 262.425 203.469 263.122C204.051 263.822 204.79 264.412 205.638 264.572H205.65C205.783 264.598 205.868 264.719 205.856 264.852C205.856 264.858 205.859 264.864 205.856 264.87C205.833 265.012 205.7 265.106 205.558 265.085C205.139 265.015 204.754 264.864 204.403 264.663C203.871 264.362 203.413 263.946 203.029 263.508C202.376 262.77 201.848 261.946 201.39 261.099C200.48 259.392 199.797 257.596 199.192 255.786C197.989 252.154 197.097 248.442 196.332 244.709C195.594 240.973 194.982 237.217 194.444 233.449C193.904 229.683 193.461 225.903 193.13 222.112C193.121 221.996 193.207 221.893 193.319 221.881ZM219.413 257.945C219.375 258.016 219.333 258.081 219.295 258.152C219.138 258.423 218.991 258.698 218.819 258.964C218.742 259.085 218.583 259.12 218.462 259.043C218.447 259.034 218.444 259.011 218.429 258.999C218.347 258.916 218.314 258.789 218.382 258.686L218.385 258.677C219.499 256.917 220.217 254.924 220.766 252.904C221.33 250.881 221.688 248.799 221.968 246.711C222.527 242.529 222.68 238.295 222.704 234.069C222.736 229.84 222.583 225.608 222.32 221.382C222.033 217.159 221.679 212.936 221.188 208.734C221.174 208.619 221.253 208.512 221.369 208.495C221.484 208.48 221.59 208.56 221.608 208.675C222.214 212.883 222.648 217.103 222.952 221.341C223.253 225.576 223.445 229.819 223.448 234.072C223.434 238.321 223.233 242.58 222.651 246.803C222.104 250.612 221.318 254.513 219.413 257.945ZM209.827 354.057C209.839 354.051 209.853 354.048 209.862 354.045C210.932 353.682 212.004 353.34 213.079 353.012L216.353 352.046L219.646 351.14C220.745 350.844 221.85 350.567 222.955 350.301C222.976 350.298 222.991 350.307 223.008 350.307C223.094 350.31 223.18 350.354 223.209 350.44C223.245 350.549 223.186 350.673 223.073 350.708C223.058 350.714 223.041 350.72 223.023 350.726C221.962 351.086 220.899 351.438 219.83 351.771L216.562 352.767L213.28 353.7C212.181 354.001 211.079 354.288 209.972 354.556C209.96 354.559 209.948 354.55 209.933 354.55C209.818 354.559 209.703 354.5 209.664 354.385C209.617 354.249 209.691 354.101 209.827 354.057ZM118.404 351.692C118.413 351.692 118.419 351.686 118.428 351.686C119.394 351.836 120.36 351.996 121.32 352.176C122.286 352.347 123.24 352.548 124.203 352.734L127.069 353.351C128.023 353.57 128.971 353.8 129.917 354.051C129.92 354.051 129.92 354.051 129.92 354.051C130.044 354.087 130.129 354.211 130.109 354.344C130.088 354.485 129.952 354.583 129.813 354.559C129.81 354.559 129.81 354.559 129.81 354.559C128.844 354.409 127.881 354.24 126.921 354.054L124.047 353.47C123.096 353.251 122.135 353.05 121.187 352.82C120.242 352.598 119.299 352.359 118.36 352.108C118.354 352.105 118.348 352.105 118.339 352.102C118.236 352.076 118.168 351.972 118.186 351.866C118.201 351.757 118.298 351.689 118.404 351.692ZM219.697 85.2579C219.555 85.2608 219.434 85.1486 219.428 85.0068V85.0039C219.313 81.723 218.982 78.4539 218.521 75.1995C218.438 74.6089 218.358 74.0153 218.267 73.4247C217.977 71.5022 217.632 69.5886 217.274 67.6779C216.908 65.7702 216.527 63.8595 216.101 61.9636C216.078 61.8543 216.14 61.7421 216.249 61.7096C216.364 61.6772 216.48 61.7451 216.512 61.8573C217.579 65.6225 218.37 69.4498 219.008 73.3095C219.31 75.2409 219.555 77.1811 219.738 79.1301C219.841 80.3704 219.909 81.6107 219.936 82.854C219.954 83.5687 219.96 84.2863 219.948 85.0039C219.945 85.1397 219.835 85.2519 219.697 85.2579ZM101.891 50.3962C101.891 50.3992 101.894 50.3992 101.897 50.3992L101.929 50.4169C102.738 50.8126 103.527 51.3855 104.263 51.9643C105.007 52.5461 105.696 53.2017 106.39 53.8455C107.728 55.1921 109.022 56.5948 110.171 58.1127C110.759 58.8599 111.344 59.61 111.873 60.4073C112.407 61.1958 112.986 61.9547 113.468 62.7787L114.978 65.2061L115.911 66.8747L116.375 67.7074C116.859 68.5284 117.297 69.3789 117.722 70.2324L118.068 70.9175L119.016 72.7898C119.811 74.5262 120.617 76.2597 121.373 78.0168C122.082 79.7916 122.824 81.5546 123.506 83.3413L125.491 88.7307L125.494 88.7366C125.536 88.8489 125.657 88.905 125.766 88.8636C125.875 88.8223 125.932 88.7042 125.893 88.5949L124.041 83.1434C123.382 81.3391 122.649 79.5642 121.955 77.7717C121.214 75.9998 120.422 74.2486 119.639 72.4944L118.36 69.9075C117.944 69.0422 117.509 68.1829 117.031 67.3472L115.619 64.8281L114.077 62.3829C113.583 61.5561 112.995 60.7912 112.449 59.9968C111.911 59.1995 111.314 58.4405 110.712 57.6875C108.298 54.693 105.657 51.7753 102.13 49.9385C102.026 49.8824 101.905 49.9089 101.829 49.9857C101.811 50.0064 101.793 50.0241 101.778 50.0477C101.713 50.1747 101.764 50.3312 101.891 50.3962Z" fill="#232A35"/>
</g>
<defs>
<clipPath id="clip0_77_2">
<rect width="341" height="378" fill="white" transform="matrix(-1 0 0 1 341 0)"/>
</clipPath>
</defs>
</svg>
